<svg width="600" height="400" viewBox="0 0 600 400" fill="none" xmlns="http://www.w3.org/2000/svg">
  <!-- Background -->
  <rect width="600" height="400" rx="12" fill="#111827"/>
  <rect width="600" height="400" rx="12" stroke="#1f2937" stroke-width="2" stroke-dasharray="8 4"/>

  <!-- Terminal window mockup -->
  <rect x="100" y="80" width="400" height="240" rx="8" fill="#0a0f1a" stroke="#374151"/>

  <!-- Window header -->
  <rect x="100" y="80" width="400" height="32" rx="8" fill="#1a2234"/>
  <rect x="100" y="104" width="400" height="8" fill="#1a2234"/>

  <!-- Dots -->
  <circle cx="120" cy="96" r="6" fill="#ef4444"/>
  <circle cx="140" cy="96" r="6" fill="#eab308"/>
  <circle cx="160" cy="96" r="6" fill="#22c55e"/>

  <!-- Terminal text lines -->
  <rect x="120" y="130" width="80" height="8" rx="2" fill="#22c55e" opacity="0.8"/>
  <rect x="210" y="130" width="120" height="8" rx="2" fill="#9ca3af" opacity="0.5"/>

  <rect x="120" y="150" width="60" height="8" rx="2" fill="#3b82f6" opacity="0.8"/>
  <rect x="190" y="150" width="200" height="8" rx="2" fill="#9ca3af" opacity="0.5"/>

  <rect x="120" y="170" width="100" height="8" rx="2" fill="#9ca3af" opacity="0.5"/>

  <rect x="120" y="200" width="40" height="8" rx="2" fill="#22c55e" opacity="0.8"/>
  <rect x="170" y="200" width="180" height="8" rx="2" fill="#9ca3af" opacity="0.5"/>

  <rect x="120" y="220" width="250" height="8" rx="2" fill="#9ca3af" opacity="0.3"/>
  <rect x="120" y="240" width="200" height="8" rx="2" fill="#9ca3af" opacity="0.3"/>
  <rect x="120" y="260" width="280" height="8" rx="2" fill="#9ca3af" opacity="0.3"/>

  <!-- Placeholder text -->
  <text x="300" y="360" text-anchor="middle" fill="#6b7280" font-family="Inter, sans-serif" font-size="14">
    Screenshot placeholder - Add demo image here
  </text>
</svg>